<svg xmlns="http://www.w3.org/2000/svg" width="655.359" height="655.359" fill-rule="evenodd" clip-rule="evenodd" image-rendering="optimizeQuality" shape-rendering="geometricPrecision" text-rendering="geometricPrecision" viewBox="0 0 6.827 6.827" id="reading">
  <defs>
    <clipPath id="a">
      <path d="M3.413 0a3.413 3.413 0 1 1 0 6.827 3.413 3.413 0 0 1 0-6.827z"></path>
    </clipPath>
  </defs>
  <path fill="#0097a7" d="M3.413 0a3.413 3.413 0 1 1 0 6.827 3.413 3.413 0 0 1 0-6.827z"></path>
  <g fill="#06737f" clip-path="url(#a)">
    <path d="M3.954 1.661 7.74 5.447l.012.013.01.013.011.014.01.014.01.014.009.014.009.015.009.015.009.015.008.015.007.016.008.016.007.015.006.017.006.016.006.016.006.017.005.017.004.017.005.017.003.018.004.017.003.018.002.018.002.018.002.018.001.018.001.018v.019L4.129 2.129l-.001-.019v-.018l-.001-.018-.002-.019-.002-.018-.003-.017-.003-.018-.003-.018-.004-.017-.004-.017-.005-.017-.005-.017-.005-.017-.006-.016-.006-.017-.007-.016-.007-.016-.007-.015-.008-.016-.008-.015-.008-.015-.009-.015-.009-.015-.01-.014-.009-.014-.011-.014-.01-.014-.011-.013zM4.129 2.129l3.786 3.786v.018l-.001.019-.001.018-.002.018-.002.018-.002.018-.003.017-.004.018-.003.017-.005.018-.004.017-.005.017-.006.016-.006.017-.006.016-.006.016-.007.016-.008.016-.007.015-.008.016-.009.015-.009.015-.009.014-.009.015-.01.014-.01.014-.011.013-.01.014-.012.013-.011.013-.012.012-.012.013-3.786-3.787.012-.012.012-.012.011-.013.011-.013.011-.014.01-.013.011-.014.009-.015.01-.014.009-.015.009-.014.008-.015.008-.016.008-.015.007-.016.007-.016.007-.016.006-.016.006-.017.005-.017.005-.017.005-.017.004-.017.004-.017.003-.018.003-.017.003-.018.002-.018.002-.018.001-.019v-.018z"></path>
    <path d="m3.919 2.634 3.786 3.787-.012.012-.012.011-.013.012-.013.011-.014.011-.013.01-.014.01-.015.01-.014.009-.015.01-.014.008-.015.009-.016.008-.015.008-.016.007-.016.007-.016.006-.016.007-.017.006-.017.005-.017.005-.017.005-.017.004-.017.004-.018.003-.017.003-.018.002-.018.002-.018.002-.019.001-.018.001H7.2L3.413 2.844h.019l.018-.001.018-.001.018-.002.018-.002.018-.002.018-.003.017-.004.018-.003.017-.005.017-.004.017-.005.017-.006.016-.006.017-.006.016-.006.016-.007.015-.008.016-.007.015-.008.015-.009.015-.009.015-.009.014-.009.014-.01.014-.01.014-.011.013-.01.013-.012.013-.011.013-.012zM3.413 2.844 7.2 6.63h-.019l-.018-.001-.018-.001-.019-.002-.017-.002-.018-.002-.018-.003-.018-.003-.017-.004-.017-.004-.017-.005-.017-.005-.017-.005-.016-.006-.017-.007-.016-.006-.016-.007-.015-.007-.016-.008-.015-.008-.015-.009-.015-.008-.015-.01-.014-.009-.014-.01-.014-.01-.014-.01-.013-.011-.013-.011-.013-.012-.013-.011-.012-.012-3.786-3.787.012.012.012.012.013.011.013.012.014.01.013.011.014.01.014.01.015.009.014.009.015.009.015.009.016.008.015.007.016.008.016.007.016.006.016.006.017.006.017.006.017.005.017.004.017.005.017.003.018.004.017.003.018.002.018.002.018.002.019.001.018.001zM2.586 3.379l3.786 3.786-.557-.097-3.786-3.786zM1.893 4.127l3.786 3.787-.004.005-.004.005-.004.005-.003.005-.004.006-.003.005-.004.006-.003.006-.003.006-.003.006-.003.006-.003.006-.003.006-.002.007L5.63 8l-.002.007-.002.007-.002.006-.002.007-.002.007-.002.007-.001.007-.002.007-.001.007-.001.008-.001.007-.001.007v.008l-.001.007v.008l-.001.007v.008L1.823 4.336V4.32l.001-.007v-.008l.001-.007.001-.007.001-.008.001-.007.001-.007.002-.007.001-.007.002-.007.002-.007.002-.007.002-.007.002-.006.002-.007.003-.006.002-.007.003-.006.003-.006.003-.006.003-.006.003-.006.003-.006.003-.006.004-.005.003-.006.004-.005.004-.005.004-.006zM1.823 4.336l3.786 3.786v.008l.001.007v.008l.001.007v.008l.001.007.001.007.001.008.001.007.002.007.001.007.002.007.002.007.002.007.002.006.002.007.002.007.003.006.002.007.003.006.003.006.003.006.003.006.003.006.003.006.004.005.003.006.004.006.003.005.004.005.004.005.004.005-3.786-3.786-.004-.005-.004-.005-.004-.005-.004-.006-.003-.005-.004-.006-.003-.005-.003-.006-.003-.006-.003-.006-.003-.006-.003-.006-.003-.007-.002-.006-.003-.007-.002-.006-.002-.007-.002-.007-.002-.006-.002-.007-.002-.007-.001-.007-.002-.007-.001-.008-.001-.007-.001-.007-.001-.008-.001-.007v-.007l-.001-.008v-.008z"></path>
    <path d="m2.132 3.346 3.786 3.786-.001.002-.001.006-.001.009-.003.013-.002.016-.003.019-.004.021-.003.024-.005.026-.004.027-.004.03-.005.03-.005.031-.005.033-.005.032-.005.033-.005.033-.005.033-.005.032-.005.032-.005.03-.004.029-.005.028-.004.026-.003.023-.004.022-.003.018-.003.016-.002.013-.001.009-.002.006v.002L2.02 4.05v-.002l.001-.006.002-.009.002-.013.003-.016.003-.019.003-.021.004-.024.004-.025.004-.028.005-.029.005-.03.004-.032.005-.032.006-.033.005-.033.005-.033.005-.033.005-.032.005-.031.004-.031.005-.029.004-.027.004-.026.004-.024.003-.021.003-.019.003-.016.002-.013.002-.009.001-.006z"></path>
    <path d="M2.124 3.999 5.91 7.785l-.001.006-.003.005-.004.005-.005.004-.006.005-.007.004-.007.003-.006.003-.007.003-.005.003-.005.002-.003.002-.002.002v.001L2.063 4.047v-.001l.001-.002.004-.002.005-.002.005-.003.007-.003.006-.003.007-.004.007-.004.006-.004.005-.004.004-.005.003-.006zM2.047 4.048l3.786 3.786h-.011l-.005.001h-.006l-.005.001-.006.001-.005.001-.005.002-.006.001-.005.002-.005.001-.005.002-.005.002-.005.003-.005.002-.005.002-.005.003-.005.003-.004.003-.005.003-.005.003-.004.003-.005.004-.004.003-.005.004-.004.004-.004.004-.004.004-.004.004-.004.005-.004.004-.004.005-3.786-3.787.004-.004.004-.005.004-.004.004-.004.004-.004.004-.004.004-.004.005-.004.004-.003.004-.004.005-.003.005-.003.004-.003.005-.003.005-.003.005-.003.005-.002.005-.003.005-.002.005-.002.005-.002.005-.002.005-.001.005-.002.006-.001.005-.001.006-.001.005-.001h.005l.006-.001h.005z"></path>
    <path d="m2.271 4.336 3.786 3.786v.015l-.001.008v.007l-.001.008-.001.007-.001.007-.001.008-.001.007-.001.007-.002.007-.002.007-.001.007-.002.007-.002.006-.003.007-.002.007-.002.006-.003.007-.003.006-.003.006-.002.006-.003.006-.004.006-.003.006-.003.005-.004.006-.003.006-.004.005-.004.005-.004.005-.004.005-3.786-3.786.004-.005.004-.005.004-.005.003-.006.004-.005.003-.006.004-.005.003-.006.003-.006.003-.006.003-.006.003-.006.003-.007.002-.006.003-.007.002-.006.002-.007.002-.007.002-.006.002-.007.002-.007.001-.007.002-.007.001-.008.001-.007.001-.007.001-.008.001-.007v-.015l.001-.008z"></path>
    <path d="M2.201 4.544 5.987 8.33l-.003.004-.003.004-.004.004-.003.004-.004.003-.003.004-.004.003-.004.003-.003.004-.004.003-.004.003-.004.003-.004.003-.004.002-.004.003-.004.003-.004.002-.005.002-.004.003-.004.002-.004.002-.005.002-.004.001-.005.002-.004.002-.004.001-.005.001-.005.002-.004.001-.005.001-.004.001h-.005L2.071 4.622l.004-.001.005-.001h.005l.004-.002.005-.001.004-.001.005-.002.004-.001.005-.002.004-.002.004-.001.005-.002.004-.003.004-.002.004-.002.005-.003.004-.002.004-.003.004-.003.004-.002.004-.003.003-.003.004-.004.004-.003.004-.003.003-.004.004-.003.003-.004.004-.003.003-.004.004-.004zM1.893 4.544 5.679 8.33l.004.005.004.004.004.005.004.004.004.004.004.004.004.004-3.786-3.787-.004-.003-.004-.004-.004-.004-.004-.005-.004-.004-.004-.004z"></path>
    <path d="m2.069 4.622 3.786 3.786-.005.002-.006.001-.005.002-.005.003-.005.003-.004.003-.004.003-.004.004-.003.005-.003.004-.003.005-.002.005-.002.006-.001.005-.001.006v.006L2.015 4.685l.001-.006v-.006l.002-.006.001-.005.003-.005.002-.005.003-.005.004-.004.004-.004.004-.003.004-.004.005-.003.005-.002.005-.002.006-.002z"></path>
    <path d="m2.015 4.685 3.787 3.786v.342L2.015 5.027z"></path>
    <path d="m2.015 5.027 3.787 3.786-.009-.002-.008-.003-.007-.005-3.787-3.787.008.005.008.004zM4.319 3.278l3.786 3.786.01.011.01.011.01.012.01.011.01.012.009.011-3.786-3.786-.01-.012-.009-.011-.01-.012-.01-.011-.01-.011zM4.793 3.277l3.786 3.786.004.004.004.005.003.005.003.006.002.006.001.006.001.006.001.006-3.787-3.786v-.006l-.001-.007-.001-.006-.003-.005-.002-.006-.003-.005-.004-.005z"></path>
    <path d="m4.811 3.321 3.787 3.786v.603L4.811 3.923z"></path>
    <path d="m5.015 4.029 3.786 3.786.006.006.005.007.006.006-3.787-3.786-.005-.007-.006-.006zM5.031 4.048l3.787 3.786.005.007.006.007.005.008.005.007.005.008.005.008.005.007.004.009.005.008.004.008.004.009.004.008.004.009.004.009.003.009.003.009.004.009.002.009.003.01.003.009.002.01.002.01.002.009.002.01.002.01.001.01.001.01.001.011.001.01v.01l.001.011v.01L5.13 4.336l-.001-.011v-.02l-.001-.011-.001-.01-.001-.01-.002-.01-.001-.01-.002-.01-.002-.01-.002-.009-.003-.01-.002-.009-.003-.01-.003-.009-.003-.009-.003-.009-.004-.009-.003-.009-.004-.009-.004-.009-.004-.008-.004-.008-.005-.009-.004-.008-.005-.008-.005-.008-.005-.007-.005-.008-.006-.007-.005-.007zM5.13 4.336l3.786 3.786v.01l-.001.011v.01l-.001.01-.001.011-.001.01-.001.01-.002.01-.002.01-.002.009-.002.01-.002.01-.003.009-.003.01-.002.009-.004.009-.003.009-.003.009-.004.009-.004.009-.004.008-.004.009-.004.008-.005.008-.004.008-.005.008-.005.008-.005.008-.005.007-.005.008-.006.007-.005.007-3.787-3.786.006-.007.005-.008.006-.007.005-.007.005-.008.005-.008.005-.008.004-.008.005-.008.004-.008.004-.009.004-.009.004-.008.003-.009.004-.009.003-.009.003-.009.003-.01.003-.009.002-.01.003-.009.002-.01.002-.01.002-.01.001-.01.002-.01.001-.01.001-.01.001-.01V4.346zM5.031 4.624 8.818 8.41l-.006.006-.005.007-.006.006-.006.006-.005.006-.006.005-.006.006-.007.005-.006.006-.006.005-.007.005-.006.004-.007.005-.007.004-.006.005-.007.004-.007.004-.007.003-.008.004-.007.003-.007.003-.008.003-.007.003-.008.003-.007.002-.008.002-.008.002-.007.002-.008.002-.008.001-.008.001-.008.001-3.787-3.786.008-.001.008-.001.008-.002.008-.001.008-.002.008-.002.008-.002.007-.003.008-.002.007-.003.008-.003.007-.003.007-.003.007-.004.007-.004.007-.004.007-.004.007-.004.007-.004.007-.005.006-.005.007-.005.006-.005.006-.005.006-.005.006-.006.006-.006.006-.005.006-.006.005-.007.006-.006zM3.456 3.598l3.787 3.786-.004-.003-.005-.004-.004-.002-.005-.003-.005-.002-.006-.001-3.786-3.786.005.001.006.002.004.002.005.003.004.003zM3.413 3.579 7.2 7.365l-.828-.2-3.786-3.786zM2.141 3.937l3.787 3.786.006.003.006.002.006.002.006.003.006.002.006.003.006.003.006.003.006.003.006.004.006.003.005.004.006.003.005.004.006.004.005.004.006.004.005.004.005.004.005.005.005.004-3.786-3.786-.005-.004-.005-.005-.006-.004-.005-.004-.005-.005-.005-.003-.006-.004-.005-.004-.006-.004-.006-.003-.005-.004-.006-.003-.006-.003-.006-.003-.006-.003-.006-.003-.006-.002-.006-.003-.006-.002-.006-.003z"></path>
    <path d="m3.428 3.583 3.786 3.786-3.786-3.786z"></path>
    <path d="m3.428 3.583 3.786 3.786-.014-.004-3.787-3.786z"></path>
    <path d="m4.811 4.748 3.787 3.786v.279L4.811 5.027zM2.298 4.048l3.787 3.786-.004-.005-.004-.005-.005-.004-.004-.005-.004-.004-.004-.005-.005-.004-.004-.005-.005-.004L2.26 4.007l.004.004.005.004.004.005.005.004.004.005.004.004.004.005.004.005zM2.069 4.049l3.787 3.786H5.847l-.003-.001h-.011L2.047 4.048H2.061l.003.001h.003z"></path>
    <path d="m2.397 4.336 3.786 3.786V8.101l-.001-.01-.001-.01-.001-.011-.001-.01-.001-.01-.002-.01-.002-.01-.002-.009-.002-.01-.002-.01-.003-.009-.002-.01-.003-.009-.003-.009-.004-.009-.003-.009-.004-.009-.003-.009-.004-.008-.005-.009-.004-.008-.004-.008-.005-.009-.005-.007-.005-.008-.005-.008-.005-.007-.005-.008-.006-.007-.005-.007-3.787-3.786.006.007.006.007.005.007.005.008.005.007.005.008.005.008.004.008.005.009.004.008.004.008.004.009.004.009.004.009.003.009.003.009.003.009.003.009.003.01.003.009.002.01.002.009.002.01.002.01.002.01.001.01.001.01.001.01.001.011v.01l.001.01z"></path>
    <path d="m4.763 5.089 3.786 3.786-1.329.321L3.433 5.41z"></path>
    <path d="m4.811 5.027 3.787 3.786v.005l-.001.006-.001.005-.002.005-.001.005-.003.004-.002.005-.003.004-.004.004-.003.004-.004.003-.005.004-.004.002-.005.003-.005.002-.006.001-3.786-3.786.006-.002.005-.002.005-.002.004-.003.004-.003.004-.003.004-.004.003-.004.003-.004.003-.005.002-.005.002-.004.002-.005.001-.006v-.005zM3.393 5.41 7.18 9.196 3.393 5.41z"></path>
    <path d="M3.92 1.623a.713.713 0 0 1 0 1.011.713.713 0 0 1-1.012 0 .713.713 0 0 1 0-1.011.713.713 0 0 1 1.011 0zM3.392 5.41zM2.271 4.336a.33.33 0 0 1-.07.208.207.207 0 0 1 .009-.011.334.334 0 0 0 .06-.197zm-.256-.413L2.124 4c0 .03-.086.046-.055.05a.2.2 0 0 0-.177.078.33.33 0 0 0-.069.209.33.33 0 0 0 .07.208.2.2 0 0 0 .176.078.063.063 0 0 0-.054.063v.342c-.086-.01-.163-.334-.22-.403a.456.456 0 0 1-.098-.288c0-.112.038-.214.098-.288a.33.33 0 0 1 .22-.125zm.828-.88c.167-.078.362-.122.57-.122.208 0 .403.044.57.121.161.075.297.18.395.304l.35-.085a.063.063 0 0 1 .083.06v.602a.33.33 0 0 1 .22.125c.061.074.099.176.099.288a.456.456 0 0 1-.099.288.33.33 0 0 1-.22.124v.279a.063.063 0 0 1-.048.062l-1.33.321a.063.063 0 0 0 .043-.06V3.645a.063.063 0 0 0-.048-.063l-.015-.003-.827-.2-.557-.097c.098-.125.653-.165.814-.24zm-.446 1.293a.456.456 0 0 0-.099-.288.347.347 0 0 1 .013.017.46.46 0 0 1 .086.27zM2.02 4.05l.112-.704c-.004 0-.11.705-.112.704z"></path>
  </g>
  <path fill="none" d="M3.413 0a3.413 3.413 0 1 1 0 6.827 3.413 3.413 0 0 1 0-6.827z"></path>
  <path fill="#fffffe" fill-rule="nonzero" d="m2.098 3.261 1.33.322c.03.007.049.033.048.062V5.35a.063.063 0 0 1-.083.06l-1.33-.321a.063.063 0 0 1-.048-.062v-.342c0-.034.026-.061.06-.063a.213.213 0 0 0 .135-.09.334.334 0 0 0 .06-.196.334.334 0 0 0-.06-.197.211.211 0 0 0-.14-.09l.008-.062-.008.062a.063.063 0 0 1-.055-.063v-.665a.063.063 0 0 1 .083-.06zm1.252.432-1.209-.292v.536a.347.347 0 0 1 .17.127.46.46 0 0 1 .086.272.46.46 0 0 1-.086.27.347.347 0 0 1-.17.128v.244l1.21.293V3.693z"></path>
  <path fill="#fffffe" fill-rule="nonzero" d="M2.047 3.922c.099 0 .188.048.251.126.061.074.099.176.099.288a.456.456 0 0 1-.099.288.325.325 0 0 1-.251.126.325.325 0 0 1-.252-.126.456.456 0 0 1-.098-.288c0-.112.038-.214.098-.288a.325.325 0 0 1 .252-.126zm.154.205a.2.2 0 0 0-.154-.08.2.2 0 0 0-.154.08.33.33 0 0 0-.07.209.33.33 0 0 0 .07.208.2.2 0 0 0 .154.08.2.2 0 0 0 .154-.08.33.33 0 0 0 .07-.208.33.33 0 0 0-.07-.209zm2.484-.726-1.209.292v1.578l1.21-.293v-.244a.347.347 0 0 1-.17-.127.46.46 0 0 1-.086-.271.46.46 0 0 1 .085-.272.347.347 0 0 1 .17-.127v-.536zM3.4 3.583l1.33-.322a.063.063 0 0 1 .082.06v.665a.063.063 0 0 1-.054.063l-.009-.062.009.062a.211.211 0 0 0-.14.09.334.334 0 0 0-.061.197c0 .076.023.145.06.197.036.048.084.08.136.089.033.002.06.03.06.063v.342a.063.063 0 0 1-.049.062l-1.33.321a.063.063 0 0 1-.083-.06V3.645c0-.03.02-.055.049-.062z"></path>
  <path fill="#fffffe" fill-rule="nonzero" d="M4.78 4.048a.2.2 0 0 0-.154.08.33.33 0 0 0-.07.208.33.33 0 0 0 .07.208.2.2 0 0 0 .154.08.2.2 0 0 0 .154-.08.33.33 0 0 0 .07-.208.33.33 0 0 0-.07-.209.2.2 0 0 0-.154-.08zm-.252 0a.325.325 0 0 1 .252-.126c.099 0 .188.048.251.126.061.074.099.176.099.288a.456.456 0 0 1-.099.288.325.325 0 0 1-.251.126.325.325 0 0 1-.252-.126.456.456 0 0 1-.098-.288c0-.112.037-.214.098-.288zM3.413 1.413a.713.713 0 0 1 .716.716.713.713 0 0 1-.716.715.713.713 0 0 1-.715-.715.713.713 0 0 1 .715-.716zm.417.299a.587.587 0 0 0-.833 0 .587.587 0 0 0 0 .833.587.587 0 0 0 .833 0 .587.587 0 0 0 0-.833zm.411 1.667a.96.96 0 0 0-.31-.222 1.238 1.238 0 0 0-.518-.11c-.19 0-.366.04-.518.11a.96.96 0 0 0-.31.222l.828.2.828-.2zm-.257-.337c.173.08.318.196.417.335a.063.063 0 0 1-.034.101l-.934.226a.063.063 0 0 1-.034.001l.014-.061-.014.06-.934-.225a.063.063 0 0 1-.042-.099c.1-.14.245-.257.42-.338.167-.077.362-.121.57-.121.208 0 .403.044.57.121z"></path>
</svg>